<svg width="800" height="800" viewBox="0 0 800 800" fill="none" xmlns="http://www.w3.org/2000/svg">
<path d="M181.832 0.680513C182.214 0.642018 182.596 0.60664 182.98 0.585832C193.871 -0.00719953 204.866 0.257071 215.77 0.269556L554.551 0.275795C588.69 0.266431 623.833 -1.70722 657.498 5.0419C689.522 11.4612 718.701 25.3746 742.966 48.0336C781.565 84.0795 796.872 132.766 799.241 185.11C800.662 216.501 799.653 248.376 799.648 279.818L799.659 564.6C799.663 596.326 801.365 628.95 795.188 660.208C789.36 690.345 775.7 718.294 755.661 741.08C719.13 782.287 671.499 796.657 618.93 799.131C618.117 799.197 617.304 799.254 616.49 799.304C605.713 799.956 594.769 799.721 583.975 799.723L248.816 799.732C213.269 799.738 176.453 801.746 141.413 794.679C109.745 788.292 79.8618 774.117 55.7349 751.871C20.3546 719.248 3.32825 673.637 0.894324 625.601C-0.692226 594.296 0.315921 562.58 0.313898 531.219L0.305813 247.386C0.31188 213.441 -1.38691 178.57 5.06951 145.112C11.083 113.949 24.0242 85.1095 44.802 61.4163C81.3382 19.7522 128.636 3.52811 181.832 0.680513Z" fill="white"/>
<path d="M451.623 306.504L452.408 306.455C461.283 305.939 493.062 305.528 500.396 307.178C504.228 308.041 507.893 309.866 510.774 312.629C523.717 325.043 514.802 346.454 515.306 361.928C515.447 366.263 516.544 370.656 519.856 373.591C522.315 375.772 525.6 376.9 528.829 376.829C536.134 376.67 544.324 373.196 551.527 371.534C560.632 369.434 570.248 368.145 579.557 367.445C608.228 365.286 639.435 369.288 661.864 389.41C677.562 403.494 686.211 423.527 687.555 444.759C688.569 460.778 684.761 477.077 678.931 491.84C659.177 541.856 615.445 575.912 567.967 595.432C561.027 598.285 553.611 600.329 546.333 602.081C541.954 603.135 537.146 603.867 532.959 605.541C531.216 606.237 529.476 607.235 528.289 608.756C527.25 610.087 526.75 611.679 527.065 613.384C527.585 616.194 529.882 618.484 531.99 620.156C547.404 632.386 562.522 625.113 574.316 634.094C578.795 637.505 581.588 642 582.348 647.705C583.257 654.13 581.484 660.65 577.468 665.656C573.057 671.188 567.893 673 561.213 673.492C546.992 674.539 532.148 673.679 517.876 673.678L372.807 673.632C362.742 673.658 351.849 674.629 341.865 673.459C337.084 672.899 332.509 670.987 328.925 667.643C323.79 662.852 322.307 656.811 322.047 649.967C323.223 639.278 330.042 631.447 340.464 629.623C344.782 628.867 349.224 628.928 353.532 628.151C360.156 626.955 369.883 623.011 374.242 617.539C375.715 615.688 376.667 613.368 376.277 610.941C375.911 608.674 374.408 607.318 372.516 606.312C366.929 603.341 359.703 602.461 353.677 600.49C343.052 597.018 332.778 591.488 323.324 585.448C311.849 578.12 301.534 568.456 292.636 558.042C280.659 544.023 271.014 528.924 254.765 519.51C242.84 512.603 229.558 509.378 216.702 504.87C194.518 497.091 172.677 487.276 153.323 473.538C131.308 457.912 110.41 434.579 105.562 406.586C102.61 390.301 106.215 373.482 115.552 359.986C124.088 347.408 136.782 338.526 150.913 333.883C167.875 328.311 186.561 328.497 203.62 333.515C220.497 338.48 235.934 347.416 251.313 355.899C285.781 374.914 323.012 392.985 363.284 385.282C390.442 380.089 413.739 363.378 426.27 337.824C429.985 330.25 431.804 321.431 436.653 314.527C440.151 309.549 445.929 307.351 451.623 306.504Z" fill="black"/>
<path d="M556.391 437.647C565.46 437.031 575.48 438.773 583.326 443.67C591.289 448.605 596.972 456.644 599.083 465.958C602.051 478.759 598.127 491.913 591.597 502.862C578.575 524.695 555.395 538.008 531.748 543.838C531.131 543.957 530.513 544.07 529.894 544.18C521.731 545.621 500.351 548.844 493.403 543.373C491.334 541.744 489.928 539.175 489.687 536.509C488.879 527.55 499.256 479.011 502.562 469.939C504.445 464.773 507.396 459.784 510.897 455.61C522.356 441.942 539.818 439.007 556.391 437.647Z" fill="white"/>
<path d="M171.005 377.23C175.213 376.766 179.464 376.959 183.613 377.805C203.245 381.744 220.604 397.372 231.423 414.069C236.272 421.551 251.206 449.496 249.1 458.435C248.781 459.788 248.026 460.991 246.8 461.645C243.008 463.668 236.317 460.974 232.398 459.908C217.511 455.371 203.092 449.931 189.581 441.971C175.365 433.596 156.499 418.898 152.276 401.58C151.082 396.685 151.296 391.457 154.025 387.131C157.843 381.081 164.432 378.527 171.005 377.23Z" fill="white"/>
<path d="M562.731 130.112C604.207 126.88 640.358 158.899 643.419 201.579C646.481 244.259 615.292 281.394 573.805 284.462C532.431 287.522 496.459 255.537 493.405 212.973C490.351 170.409 521.368 133.337 562.731 130.112Z" fill="black"/>
<path d="M562.558 175.947C579.524 172.643 595.886 184.098 599.127 201.548C602.366 218.997 591.263 235.852 574.309 239.217C557.312 242.59 540.882 231.131 537.633 213.637C534.384 196.144 545.551 179.259 562.558 175.947Z" fill="white"/>
</svg>
