<svg xmlns="http://www.w3.org/2000/svg" viewBox="0 0 1024 1024">
    <style>
        path { fill: #0f172a; }
        @media (prefers-color-scheme: dark) {
            path { fill: #f8fafc; }
        }
    </style>
    <path d="M 691 204.422 C 649.129 213.181, 620.223 251.294, 622.304 295 C 625.406 360.161, 693.060 398.979, 749 367.694 C 759.321 361.922, 774.935 346.280, 780.831 335.806 C 809.339 285.158, 784.481 221.710, 729.961 205.970 C 720.437 203.221, 700.526 202.429, 691 204.422 M 695.890 256.413 C 686.527 260.007, 679.469 266.641, 675.101 275.954 C 671.190 284.293, 671.313 297.931, 675.380 306.734 C 683.708 324.765, 705.035 332.673, 722.349 324.149 C 749.180 310.940, 749.437 272.057, 722.784 258.351 C 716.391 255.064, 702.089 254.033, 695.890 256.413 M 570.951 404.309 C 560.063 407.372, 557.396 410.562, 549.594 429.858 C 525.712 488.926, 464.241 510.375, 395.995 483.454 C 381.051 477.559, 368.270 471.309, 343.475 457.771 C 304.920 436.721, 289.727 431.267, 267 430.317 C 201.472 427.580, 161.559 484.918, 189.492 541.666 C 208.770 580.832, 248.507 608.942, 317.785 632.421 C 354.641 644.911, 360.947 649.343, 386.999 681.061 C 415.435 715.682, 437.498 730.466, 477.262 741.544 C 500.692 748.071, 486.195 766.815, 455.231 770.027 C 450.133 770.556, 444.475 771.610, 442.658 772.369 C 423.003 780.582, 422.592 809.326, 442 818.397 C 446.490 820.495, 446.794 820.501, 573.442 820.765 C 717.672 821.066, 707.847 821.594, 716.066 813.105 C 728.295 800.473, 724.659 779.832, 709.018 773.103 C 706.270 771.921, 699.138 770.310, 693.170 769.522 C 671.528 766.668, 657.439 757.597, 661.062 748.850 C 662.707 744.880, 665.360 743.688, 681.601 739.627 C 712.053 732.013, 740.441 718.109, 768.213 697.206 C 835.171 646.809, 861.643 566.039, 828 514.791 C 811.797 490.110, 785.605 476.166, 749.148 472.812 C 728.099 470.875, 700.150 473.837, 677.543 480.400 C 661.407 485.084, 652.898 483.396, 648.964 474.729 C 646.609 469.541, 646.530 463.949, 648.593 448.458 C 651.875 423.812, 647.926 411.766, 634.632 405.868 C 629.766 403.710, 628.098 403.577, 602.500 403.311 C 582.854 403.106, 574.261 403.378, 570.951 404.309 M 248.581 485.949 C 234.062 491.810, 230.131 504.579, 237.925 520.566 C 242.157 529.248, 257.691 545.160, 269.500 552.909 C 284.943 563.043, 311.167 574.361, 331.287 579.574 C 348.620 584.066, 348.895 573.595, 332.314 540.566 C 319.239 514.523, 300.129 495.312, 279.414 487.390 C 269.856 483.734, 255.707 483.073, 248.581 485.949 M 678.360 554.476 C 652.726 559.129, 636.738 572.886, 630.683 595.500 C 625.404 615.215, 618 654.611, 618 662.985 C 618 672.552, 623.683 675.989, 639.500 675.989 C 694.818 675.987, 744.718 635.687, 742.823 592.545 C 741.512 562.685, 716.034 547.639, 678.360 554.476" fill-rule="evenodd" />
</svg>
